<svg width="91" height="91" viewBox="0 0 91 91" fill="none" xmlns="http://www.w3.org/2000/svg">
<rect width="91" height="91" rx="16" fill="#375845"/>
<g clip-path="url(#clip0_29_2)">
<path d="M54.5592 32.5807C53.7616 28.6676 50.6957 25.576 46.8012 24.7349C46.9919 23.45 47.4898 21.6667 48.7932 20.2922C50.2094 18.797 52.3571 18.0378 55.1778 18.0378V14C51.182 14 48.0384 15.1954 45.8286 17.5549C45.385 18.0261 45.0076 18.5245 44.677 19.0307C44.3502 18.5245 43.9688 18.0261 43.5252 17.5549C41.3154 15.1954 38.1717 14 34.176 14V18.0378C36.9967 18.0378 39.1444 18.797 40.5607 20.2922C41.8601 21.6667 42.362 23.45 42.5527 24.7349C38.6581 25.576 35.5923 28.6676 34.7946 32.5807H5V34.6015C5 43.5843 10.7037 51.2587 18.6717 54.1868C20.0374 54.693 21.4691 55.0551 22.9475 55.2654C23.8969 55.4016 24.8657 55.4679 25.8462 55.4679C26.278 55.4679 26.702 55.4562 27.1184 55.4289C28.4957 55.3472 29.8341 55.1252 31.1335 54.7904H31.1414C32.4602 54.44 33.7247 53.9688 34.9347 53.3847C36.2459 52.7462 37.4909 51.9713 38.6348 51.0758C39.9731 50.0401 41.1753 48.833 42.2258 47.5013C43.1868 46.2904 44.0077 44.9627 44.6808 43.5571C45.3538 44.9627 46.1748 46.2904 47.1359 47.5013C48.1862 48.833 49.3885 50.0401 50.7269 51.0758C51.8707 51.9713 53.1158 52.7462 54.4269 53.3847C55.6291 53.9688 56.9014 54.44 58.2203 54.7904C59.512 55.1252 60.8504 55.3472 62.2277 55.4289C62.6518 55.4562 63.0797 55.4679 63.5116 55.4679C64.4921 55.4679 65.4609 55.4016 66.4101 55.2654C67.8885 55.0551 69.3204 54.693 70.6859 54.1868C78.654 51.2587 84.3578 43.5882 84.3578 34.6015V32.5807H54.567H54.5592ZM40.2026 43.3352C37.2497 48.1788 31.9234 51.4262 25.8462 51.4262C17.2595 51.4262 10.159 44.951 9.15523 36.6224H42.537C42.2492 39.0598 41.4282 41.3337 40.2026 43.339V43.3352ZM42.6577 32.5807H38.977C39.8097 30.2329 42.0468 28.5429 44.677 28.5429C47.307 28.5429 49.5402 30.2329 50.3768 32.5807H42.6615H42.6577ZM63.5037 51.4262C57.4266 51.4262 52.1003 48.1827 49.1473 43.3352C47.9217 41.3298 47.1047 39.0559 46.8129 36.6184H80.1948C79.1909 44.951 72.0905 51.4223 63.5037 51.4223V51.4262Z" fill="#AFC083"/>
<path d="M32.8376 58.4893C31.4876 58.8942 30.087 59.1745 28.6552 59.3381C31.7288 65.1202 37.7944 68.9204 44.673 68.9204C51.5517 68.9204 57.5511 65.0657 60.6559 59.3381C59.2241 59.1785 57.8235 58.8865 56.4734 58.4814C53.925 62.3518 49.5208 64.8827 44.673 64.8827C39.8253 64.8827 35.3744 62.379 32.8376 58.4893Z" fill="#EFF2E8"/>
<path d="M44.6733 72.9584C35.6236 72.9584 27.675 67.3982 24.2628 59.4434C22.695 59.3499 21.1698 59.1085 19.6913 58.7231C23.0956 69.3412 33.1218 76.9962 44.6733 76.9962C56.2247 76.9962 66.2509 69.3372 69.6552 58.7231C68.1767 59.1085 66.6477 59.3499 65.0837 59.4434C61.6677 67.3982 53.7268 72.9584 44.6733 72.9584Z" fill="#EFF2E8"/>
<path d="M36.7482 56.9827C38.5963 59.3305 41.4637 60.8452 44.6773 60.8452C47.891 60.8452 50.7546 59.3305 52.6065 56.9827C51.377 56.3752 50.1981 55.6782 49.0972 54.884C47.996 56.0676 46.4203 56.8074 44.6773 56.8074C42.9343 56.8074 41.3625 56.0676 40.2575 54.884C39.1566 55.6782 37.9777 56.379 36.7482 56.9827Z" fill="#EFF2E8"/>
<path d="M44.6729 53.377C45.9601 53.377 47.0034 52.3327 47.0034 51.0447C47.0034 49.7566 45.9601 48.7123 44.6729 48.7123C43.3858 48.7123 42.3424 49.7566 42.3424 51.0447C42.3424 52.3327 43.3858 53.377 44.6729 53.377Z" fill="#EFF2E8"/>
</g>
<defs>
<clipPath id="clip0_29_2">
<rect width="80" height="63" fill="white" transform="translate(5 14)"/>
</clipPath>
</defs>
</svg>
